<?xml version="1.0" encoding="utf-8"?>
<!-- Generator: Adobe Illustrator 16.0.0, SVG Export Plug-In . SVG Version: 6.00 Build 0)  -->
<!DOCTYPE svg PUBLIC "-//W3C//DTD SVG 1.1//EN" "http://www.w3.org/Graphics/SVG/1.1/DTD/svg11.dtd">
<svg version="1.1" id="Layer_1" xmlns="http://www.w3.org/2000/svg" xmlns:xlink="http://www.w3.org/1999/xlink" x="0px" y="0px"
	 width="50px" height="50px" viewBox="0 0 50 50" enable-background="new 0 0 50 50" xml:space="preserve">
<g>
	<path d="M19.731,13.58l7.318,4.225c0.202,0.116,0.461,0.046,0.577-0.155l0.211-0.366c0.117-0.201,0.048-0.46-0.154-0.577
		l-7.318-4.225c-0.202-0.117-0.461-0.047-0.577,0.154l-0.211,0.366C19.46,13.204,19.529,13.463,19.731,13.58z"/>
	<path d="M13.394,24.557l7.318,4.226c0.202,0.116,0.461,0.046,0.577-0.154l0.211-0.366c0.117-0.201,0.048-0.461-0.154-0.577
		l-7.318-4.225c-0.202-0.117-0.461-0.047-0.577,0.154l-0.211,0.366C13.122,24.181,13.191,24.44,13.394,24.557z"/>
	<path d="M39.199,29.72l-14.646-7.591l1.969-3.41c0.116-0.201,0.047-0.461-0.154-0.577l-6.587-3.803
		c-0.201-0.116-0.461-0.046-0.577,0.155l-4.648,8.05c-0.115,0.201-0.046,0.461,0.155,0.577l6.587,3.803
		c0.201,0.117,0.461,0.046,0.576-0.155l1.97-3.41l13.896,8.889c0.196,0.125,0.451,0.063,0.567-0.139l1.057-1.83
		C39.479,30.079,39.405,29.827,39.199,29.72z"/>
	<path d="M41.51,30.788l-0.732-0.422c-0.201-0.116-0.461-0.046-0.578,0.155l-1.268,2.195c-0.115,0.201-0.046,0.461,0.155,0.577
		l0.732,0.422c0.201,0.117,0.46,0.047,0.577-0.155l1.268-2.195C41.78,31.164,41.711,30.904,41.51,30.788z"/>
	<path d="M25.697,33.394h-0.881c0.111-0.124,0.185-0.284,0.185-0.464v-0.696c0-0.383-0.313-0.697-0.696-0.697H10.369
		c-0.384,0-0.697,0.314-0.697,0.697v0.696c0,0.18,0.074,0.34,0.186,0.464H8.976c-0.385,0-0.697,0.314-0.697,0.697v2.788
		c0,0.382,0.313,0.696,0.697,0.696h16.722c0.385,0,0.697-0.314,0.697-0.696V34.09C26.395,33.708,26.082,33.394,25.697,33.394z
		 M24.706,36.615H10.031c-0.403,0-0.733-0.331-0.733-0.733v-0.734c0.001-0.403,0.33-0.734,0.733-0.733h14.675
		c0.405,0,0.735,0.33,0.734,0.732l0.001,0.735C25.44,36.285,25.111,36.615,24.706,36.615z"/>
</g>
</svg>
